<svg xmlns="http://www.w3.org/2000/svg" width="760" height="420" viewBox="0 0 760 420" role="img" aria-label="Efficient frontier of execution (Almgren-Chriss)">
<line x1="64.0" y1="372.0" x2="740.0" y2="372.0" stroke="#e2e6ec" stroke-width="1"/>
<text x="56.0" y="376.0" text-anchor="end" fill="#3c4450" font-family="ui-monospace, SFMono-Regular, Menlo, monospace" font-size="11">891,925</text>
<line x1="64.0" y1="288.0" x2="740.0" y2="288.0" stroke="#e2e6ec" stroke-width="1"/>
<text x="56.0" y="292.0" text-anchor="end" fill="#3c4450" font-family="ui-monospace, SFMono-Regular, Menlo, monospace" font-size="11">1.5e+06</text>
<line x1="64.0" y1="204.0" x2="740.0" y2="204.0" stroke="#e2e6ec" stroke-width="1"/>
<text x="56.0" y="208.0" text-anchor="end" fill="#3c4450" font-family="ui-monospace, SFMono-Regular, Menlo, monospace" font-size="11">2.1e+06</text>
<line x1="64.0" y1="120.0" x2="740.0" y2="120.0" stroke="#e2e6ec" stroke-width="1"/>
<text x="56.0" y="124.0" text-anchor="end" fill="#3c4450" font-family="ui-monospace, SFMono-Regular, Menlo, monospace" font-size="11">2.7e+06</text>
<line x1="64.0" y1="36.0" x2="740.0" y2="36.0" stroke="#e2e6ec" stroke-width="1"/>
<text x="56.0" y="40.0" text-anchor="end" fill="#3c4450" font-family="ui-monospace, SFMono-Regular, Menlo, monospace" font-size="11">3.3e+06</text>
<line x1="64.0" y1="36.0" x2="64.0" y2="372.0" stroke="#e2e6ec" stroke-width="1"/>
<text x="64.0" y="390.0" text-anchor="middle" fill="#3c4450" font-family="ui-monospace, SFMono-Regular, Menlo, monospace" font-size="11">5,802</text>
<line x1="199.2" y1="36.0" x2="199.2" y2="372.0" stroke="#e2e6ec" stroke-width="1"/>
<text x="199.2" y="390.0" text-anchor="middle" fill="#3c4450" font-family="ui-monospace, SFMono-Regular, Menlo, monospace" font-size="11">6,968</text>
<line x1="334.4" y1="36.0" x2="334.4" y2="372.0" stroke="#e2e6ec" stroke-width="1"/>
<text x="334.4" y="390.0" text-anchor="middle" fill="#3c4450" font-family="ui-monospace, SFMono-Regular, Menlo, monospace" font-size="11">8,135</text>
<line x1="469.6" y1="36.0" x2="469.6" y2="372.0" stroke="#e2e6ec" stroke-width="1"/>
<text x="469.6" y="390.0" text-anchor="middle" fill="#3c4450" font-family="ui-monospace, SFMono-Regular, Menlo, monospace" font-size="11">9,301</text>
<line x1="604.8" y1="36.0" x2="604.8" y2="372.0" stroke="#e2e6ec" stroke-width="1"/>
<text x="604.8" y="390.0" text-anchor="middle" fill="#3c4450" font-family="ui-monospace, SFMono-Regular, Menlo, monospace" font-size="11">10,467</text>
<line x1="740.0" y1="36.0" x2="740.0" y2="372.0" stroke="#e2e6ec" stroke-width="1"/>
<text x="740.0" y="390.0" text-anchor="middle" fill="#3c4450" font-family="ui-monospace, SFMono-Regular, Menlo, monospace" font-size="11">11,634</text>
<polyline points="740.00,356.73 740.00,356.73 740.00,356.73 740.00,356.73 740.00,356.73 740.00,356.73 740.00,356.73 740.00,356.73 740.00,356.73 740.00,356.73 739.99,356.73 739.97,356.73 739.93,356.73 739.82,356.73 739.57,356.73 738.94,356.73 737.39,356.72 733.59,356.71 724.41,356.63 702.66,356.16 653.93,353.67 556.90,342.30 402.28,303.32 222.72,211.65 64.00,51.27" fill="none" stroke="#2b6cb0" stroke-width="2.2" stroke-linejoin="round"/>
<circle cx="740.00" cy="356.73" r="3.0" fill="#2b6cb0" opacity="0.85"/>
<circle cx="740.00" cy="356.73" r="3.0" fill="#2b6cb0" opacity="0.85"/>
<circle cx="740.00" cy="356.73" r="3.0" fill="#2b6cb0" opacity="0.85"/>
<circle cx="740.00" cy="356.73" r="3.0" fill="#2b6cb0" opacity="0.85"/>
<circle cx="740.00" cy="356.73" r="3.0" fill="#2b6cb0" opacity="0.85"/>
<circle cx="740.00" cy="356.73" r="3.0" fill="#2b6cb0" opacity="0.85"/>
<circle cx="740.00" cy="356.73" r="3.0" fill="#2b6cb0" opacity="0.85"/>
<circle cx="740.00" cy="356.73" r="3.0" fill="#2b6cb0" opacity="0.85"/>
<circle cx="740.00" cy="356.73" r="3.0" fill="#2b6cb0" opacity="0.85"/>
<circle cx="740.00" cy="356.73" r="3.0" fill="#2b6cb0" opacity="0.85"/>
<circle cx="739.99" cy="356.73" r="3.0" fill="#2b6cb0" opacity="0.85"/>
<circle cx="739.97" cy="356.73" r="3.0" fill="#2b6cb0" opacity="0.85"/>
<circle cx="739.93" cy="356.73" r="3.0" fill="#2b6cb0" opacity="0.85"/>
<circle cx="739.82" cy="356.73" r="3.0" fill="#2b6cb0" opacity="0.85"/>
<circle cx="739.57" cy="356.73" r="3.0" fill="#2b6cb0" opacity="0.85"/>
<circle cx="738.94" cy="356.73" r="3.0" fill="#2b6cb0" opacity="0.85"/>
<circle cx="737.39" cy="356.72" r="3.0" fill="#2b6cb0" opacity="0.85"/>
<circle cx="733.59" cy="356.71" r="3.0" fill="#2b6cb0" opacity="0.85"/>
<circle cx="724.41" cy="356.63" r="3.0" fill="#2b6cb0" opacity="0.85"/>
<circle cx="702.66" cy="356.16" r="3.0" fill="#2b6cb0" opacity="0.85"/>
<circle cx="653.93" cy="353.67" r="3.0" fill="#2b6cb0" opacity="0.85"/>
<circle cx="556.90" cy="342.30" r="3.0" fill="#2b6cb0" opacity="0.85"/>
<circle cx="402.28" cy="303.32" r="3.0" fill="#2b6cb0" opacity="0.85"/>
<circle cx="222.72" cy="211.65" r="3.0" fill="#2b6cb0" opacity="0.85"/>
<circle cx="64.00" cy="51.27" r="3.0" fill="#2b6cb0" opacity="0.85"/>
<line x1="64" y1="36" x2="64" y2="372" stroke="#8892a0" stroke-width="1.2"/>
<line x1="64" y1="372" x2="740" y2="372" stroke="#8892a0" stroke-width="1.2"/>
<text x="64" y="22" fill="#3c4450" font-family="ui-monospace, SFMono-Regular, Menlo, monospace" font-size="14" font-weight="600">Efficient frontier of execution (Almgren-Chriss)</text>
<text x="402" y="412" text-anchor="middle" fill="#3c4450" font-family="ui-monospace, SFMono-Regular, Menlo, monospace" font-size="12">cost risk (standard deviation)</text>
<text x="14" y="204" text-anchor="middle" fill="#3c4450" font-family="ui-monospace, SFMono-Regular, Menlo, monospace" font-size="12" transform="rotate(-90 14 204)">expected cost</text>
</svg>