<svg xmlns="http://www.w3.org/2000/svg" width="760" height="420" viewBox="0 0 760 420" role="img" aria-label="Monte Carlo converging on the analytic answer (secretary problem)">
<line x1="64.0" y1="372.0" x2="740.0" y2="372.0" stroke="#e2e6ec" stroke-width="1"/>
<text x="56.0" y="376.0" text-anchor="end" fill="#3c4450" font-family="ui-monospace, SFMono-Regular, Menlo, monospace" font-size="11">0.0665</text>
<line x1="64.0" y1="288.0" x2="740.0" y2="288.0" stroke="#e2e6ec" stroke-width="1"/>
<text x="56.0" y="292.0" text-anchor="end" fill="#3c4450" font-family="ui-monospace, SFMono-Regular, Menlo, monospace" font-size="11">0.1839</text>
<line x1="64.0" y1="204.0" x2="740.0" y2="204.0" stroke="#e2e6ec" stroke-width="1"/>
<text x="56.0" y="208.0" text-anchor="end" fill="#3c4450" font-family="ui-monospace, SFMono-Regular, Menlo, monospace" font-size="11">0.3014</text>
<line x1="64.0" y1="120.0" x2="740.0" y2="120.0" stroke="#e2e6ec" stroke-width="1"/>
<text x="56.0" y="124.0" text-anchor="end" fill="#3c4450" font-family="ui-monospace, SFMono-Regular, Menlo, monospace" font-size="11">0.4188</text>
<line x1="64.0" y1="36.0" x2="740.0" y2="36.0" stroke="#e2e6ec" stroke-width="1"/>
<text x="56.0" y="40.0" text-anchor="end" fill="#3c4450" font-family="ui-monospace, SFMono-Regular, Menlo, monospace" font-size="11">0.5362</text>
<line x1="64.0" y1="36.0" x2="64.0" y2="372.0" stroke="#e2e6ec" stroke-width="1"/>
<text x="64.0" y="390.0" text-anchor="middle" fill="#3c4450" font-family="ui-monospace, SFMono-Regular, Menlo, monospace" font-size="11">1.70</text>
<line x1="199.2" y1="36.0" x2="199.2" y2="372.0" stroke="#e2e6ec" stroke-width="1"/>
<text x="199.2" y="390.0" text-anchor="middle" fill="#3c4450" font-family="ui-monospace, SFMono-Regular, Menlo, monospace" font-size="11">2.28</text>
<line x1="334.4" y1="36.0" x2="334.4" y2="372.0" stroke="#e2e6ec" stroke-width="1"/>
<text x="334.4" y="390.0" text-anchor="middle" fill="#3c4450" font-family="ui-monospace, SFMono-Regular, Menlo, monospace" font-size="11">2.86</text>
<line x1="469.6" y1="36.0" x2="469.6" y2="372.0" stroke="#e2e6ec" stroke-width="1"/>
<text x="469.6" y="390.0" text-anchor="middle" fill="#3c4450" font-family="ui-monospace, SFMono-Regular, Menlo, monospace" font-size="11">3.44</text>
<line x1="604.8" y1="36.0" x2="604.8" y2="372.0" stroke="#e2e6ec" stroke-width="1"/>
<text x="604.8" y="390.0" text-anchor="middle" fill="#3c4450" font-family="ui-monospace, SFMono-Regular, Menlo, monospace" font-size="11">4.02</text>
<line x1="740.0" y1="36.0" x2="740.0" y2="372.0" stroke="#e2e6ec" stroke-width="1"/>
<text x="740.0" y="390.0" text-anchor="middle" fill="#3c4450" font-family="ui-monospace, SFMono-Regular, Menlo, monospace" font-size="11">4.60</text>
<polyline points="64.00,113.18 79.01,211.11 93.60,69.18 108.97,86.13 124.56,56.12 139.99,90.39 155.85,51.27 170.97,104.94 186.56,76.77 202.15,135.07 217.44,130.70 232.65,113.37 248.19,93.35 263.63,119.58 278.98,118.34 294.40,131.07 309.75,89.50 325.08,131.39 340.52,129.44 355.85,130.25 371.21,140.84 386.56,132.58 401.98,139.55 417.35,125.46 432.71,145.07 448.06,139.94 463.42,137.02 478.79,138.55 494.16,134.80 509.54,138.42 524.91,148.75 540.26,137.96 555.63,142.75 571.00,151.66 586.36,147.77 601.72,146.97 617.08,145.37 632.45,143.40 647.82,151.08 663.18,151.13 678.54,150.08 693.91,151.37 709.27,155.25 724.64,147.40 740.00,150.29" fill="none" stroke="#cbd5e0" stroke-width="1.4" stroke-linejoin="round"/>
<polyline points="64.00,296.77 79.01,356.73 93.60,236.13 108.97,239.44 124.56,201.32 139.99,222.37 155.85,176.36 170.97,217.58 186.56,183.29 202.15,229.62 217.44,219.01 232.65,196.69 248.19,171.67 263.63,191.01 278.98,184.73 294.40,192.09 309.75,147.64 325.08,183.97 340.52,178.31 355.85,175.58 371.21,182.55 386.56,171.54 401.98,175.49 417.35,159.14 432.71,175.87 448.06,168.63 463.42,163.69 478.79,163.26 494.16,157.78 509.54,159.68 524.91,168.30 540.26,156.24 555.63,159.64 571.00,167.22 586.36,162.24 601.72,160.39 617.08,157.83 632.45,154.97 647.82,161.75 663.18,161.02 678.54,159.26 693.91,159.86 709.27,163.11 724.64,154.73 740.00,157.07" fill="none" stroke="#cbd5e0" stroke-width="1.4" stroke-linejoin="round"/>
<polyline points="64.00,204.98 79.01,283.92 93.60,152.65 108.97,162.79 124.56,128.72 139.99,156.38 155.85,113.82 170.97,161.26 186.56,130.03 202.15,182.35 217.44,174.85 232.65,155.03 248.19,132.51 263.63,155.29 278.98,151.53 294.40,161.58 309.75,118.57 325.08,157.68 340.52,153.88 355.85,152.92 371.21,161.69 386.56,152.06 401.98,157.52 417.35,142.30 432.71,160.47 448.06,154.29 463.42,150.36 478.79,150.91 494.16,146.29 509.54,149.05 524.91,158.52 540.26,147.10 555.63,151.20 571.00,159.44 586.36,155.01 601.72,153.68 617.08,151.60 632.45,149.18 647.82,156.42 663.18,156.08 678.54,154.67 693.91,155.62 709.27,159.18 724.64,151.07 740.00,153.68" fill="none" stroke="#c05621" stroke-width="2.2" stroke-linejoin="round"/>
<line x1="64.0" y1="154.2" x2="740.0" y2="154.2" stroke="#a0aec0" stroke-width="1.2" stroke-dasharray="4,3"/>
<text x="736.0" y="149.2" text-anchor="end" fill="#a0aec0" font-family="ui-monospace, SFMono-Regular, Menlo, monospace" font-size="10">analytic = 0.37104</text>
<line x1="64" y1="36" x2="64" y2="372" stroke="#8892a0" stroke-width="1.2"/>
<line x1="64" y1="372" x2="740" y2="372" stroke="#8892a0" stroke-width="1.2"/>
<text x="64" y="22" fill="#3c4450" font-family="ui-monospace, SFMono-Regular, Menlo, monospace" font-size="14" font-weight="600">Monte Carlo converging on the analytic answer (secretary problem)</text>
<text x="402" y="412" text-anchor="middle" fill="#3c4450" font-family="ui-monospace, SFMono-Regular, Menlo, monospace" font-size="12">simulations (log scale)</text>
<text x="14" y="204" text-anchor="middle" fill="#3c4450" font-family="ui-monospace, SFMono-Regular, Menlo, monospace" font-size="12" transform="rotate(-90 14 204)">P(select the best candidate)</text>
<line x1="706" y1="42" x2="722" y2="42" stroke="#cbd5e0" stroke-width="2.4"/>
<text x="700" y="46" text-anchor="end" fill="#3c4450" font-family="ui-monospace, SFMono-Regular, Menlo, monospace" font-size="11">95% interval</text>
<line x1="706" y1="59" x2="722" y2="59" stroke="#c05621" stroke-width="2.4"/>
<text x="700" y="63" text-anchor="end" fill="#3c4450" font-family="ui-monospace, SFMono-Regular, Menlo, monospace" font-size="11">Monte Carlo</text>
</svg>